<svg xmlns="http://www.w3.org/2000/svg" xmlns:xlink="http://www.w3.org/1999/xlink" contentStyleType="text/css" data-diagram-type="STATE" height="421px" preserveAspectRatio="none" style="width:745px;height:421px;background:#FFFFFF;" version="1.1" viewBox="0 0 745 421" width="745px" zoomAndPan="magnify"><defs/><g><path d="M19.5,7 L719.6585,7 A12.5,12.5 0 0 1 732.1585,19.5 L732.1585,33.4883 L7,33.4883 L7,19.5 A12.5,12.5 0 0 1 19.5,7" fill="#ADD8E6" style="stroke:#ADD8E6;stroke-width:1;"/><rect fill="none" height="408.6781" rx="12.5" ry="12.5" style="stroke:#181818;stroke-width:0.5;" width="725.1585" x="7" y="7"/><line style="stroke:#181818;stroke-width:0.5;" x1="7" x2="732.1585" y1="33.4883" y2="33.4883"/><text fill="#000000" font-family="sans-serif" font-size="14" lengthAdjust="spacing" textLength="66.4658" x="336.3463" y="25.5352">Parrot ISU</text><path d="M31.5,45.4883 L710.6585,45.4883 A12.5,12.5 0 0 1 723.1585,57.9883 L723.1585,71.9766 L19,71.9766 L19,57.9883 A12.5,12.5 0 0 1 31.5,45.4883" fill="#F1F1F1" style="stroke:#F1F1F1;stroke-width:1;"/><rect fill="none" height="112.7605" rx="12.5" ry="12.5" style="stroke:#181818;stroke-width:0.5;" width="704.1585" x="19" y="45.4883"/><line style="stroke:#181818;stroke-width:0.5;" x1="19" x2="723.1585" y1="71.9766" y2="71.9766"/><text fill="#000000" font-family="sans-serif" font-size="14" lengthAdjust="spacing" textLength="59.0625" x="341.548" y="64.0234">Interpret</text><ellipse cx="40" cy="118.2188" fill="#222222" rx="10" ry="10" style="stroke:#222222;stroke-width:1;"/><rect fill="#F1F1F1" height="40" rx="12.5" ry="12.5" style="stroke:#181818;stroke-width:0.5;" width="50" x="68" y="98.2188"/><text fill="#000000" font-family="sans-serif" font-size="14" lengthAdjust="spacing" textLength="24.6914" x="80.6543" y="123.5098">Idle</text><g id="ParrotISU.Interpret.Recognising"><rect fill="#F1F1F1" height="50.6211" rx="12.5" ry="12.5" style="stroke:#181818;stroke-width:0.5;" width="102.4893" x="286.76" y="92.9088"/><line style="stroke:#181818;stroke-width:0.5;" x1="286.76" x2="389.2493" y1="119.397" y2="119.397"/><text fill="#000000" font-family="sans-serif" font-size="14" lengthAdjust="spacing" textLength="82.4893" x="296.76" y="111.4439">Recognising</text><text fill="#000000" font-family="sans-serif" font-size="12" lengthAdjust="spacing" textLength="71.5664" x="291.76" y="135.9986">entry /listen</text></g><!--link *start*Interpret to Idle--><g class="link" data-entity-1="*start*Interpret" data-entity-2="Idle" data-source-line="6" data-uid="lnk4" id="link_*start*Interpret_Idle"><path d="M50.35,118.2188 C56.13,118.2188 55.9,118.2188 61.68,118.2188" fill="none" id="*start*Interpret-to-Idle" style="stroke:#181818;stroke-width:1;"/><polygon fill="#181818" points="67.68,118.2188,58.68,114.2188,62.68,118.2188,58.68,122.2188,67.68,118.2188" style="stroke:#181818;stroke-width:1;"/></g><!--link Idle to Recognising--><g class="link" data-entity-1="Idle" data-entity-2="Recognising" data-source-line="7" data-uid="lnk6" id="link_Idle_Recognising"><path d="M118.29,129.9088 C126.86,133.2888 136.61,136.5288 145.88,138.2188 C195.28,147.2488 209.04,144.4188 258.88,138.2188 C267.88,137.0988 271.4705,136.6243 280.5805,134.5443" fill="none" id="Idle-to-Recognising" style="stroke:#181818;stroke-width:1;"/><polygon fill="#181818" points="286.43,133.2088,276.7654,131.3124,281.5554,134.3217,278.5462,139.1117,286.43,133.2088" style="stroke:#181818;stroke-width:1;"/><text fill="#000000" font-family="sans-serif" font-size="13" lengthAdjust="spacing" textLength="111.9092" x="146.88" y="134.7871">SPEAK_COMPLETE</text></g><!--link Recognising to Idle--><g class="link" data-entity-1="Recognising" data-entity-2="Idle" data-source-line="8" data-uid="lnk7" id="link_Recognising_Idle"><path d="M286.43,118.2188 C234.89,118.2188 163.79,118.2188 124.3,118.2188" fill="none" id="Recognising-to-Idle" style="stroke:#181818;stroke-width:1;"/><polygon fill="#181818" points="118.3,118.2188,127.3,122.2188,123.3,118.2188,127.3,114.2188,118.3,118.2188" style="stroke:#181818;stroke-width:1;"/><text fill="#000000" font-family="sans-serif" font-size="13" lengthAdjust="spacing" textLength="115.7686" x="144.8854" y="96.7871">LISTEN_COMPLETE</text><text fill="#000000" font-family="sans-serif" font-size="13" lengthAdjust="spacing" textLength="149.7793" x="127.88" y="112.0977">/raise  SAYS:$lastResult</text></g><!--link Recognising to Recognising--><g class="link" data-entity-1="Recognising" data-entity-2="Recognising" data-source-line="9" data-uid="lnk8" id="link_Recognising_Recognising"><path d="M389.64,109.1188 C399.92,110.1488 407.24,113.1788 407.24,118.2188 C407.24,123.2587 405.8907,125.7063 395.6107,126.7263" fill="none" id="Recognising-to-Recognising" style="stroke:#181818;stroke-width:1;"/><polygon fill="#181818" points="389.64,127.3188,398.991,130.4106,394.6156,126.8251,398.2011,122.4497,389.64,127.3188" style="stroke:#181818;stroke-width:1;"/><text fill="#000000" font-family="sans-serif" font-size="13" lengthAdjust="spacing" textLength="80.8882" x="520.2551" y="115.7871">RECOGNISED</text><text fill="#000000" font-family="sans-serif" font-size="13" lengthAdjust="spacing" textLength="294.9185" x="413.24" y="131.0977">/assign $lastResult := event.value[0].utterance</text></g><line style="stroke:#181818;stroke-width:1.5;stroke-dasharray:8.0,10.0;" x1="12" x2="725.1585" y1="163.2488" y2="163.2488"/><path d="M31.5,170.2488 L401.9426,170.2488 A12.5,12.5 0 0 1 414.4426,182.7488 L414.4426,196.737 L19,196.737 L19,182.7488 A12.5,12.5 0 0 1 31.5,170.2488" fill="#F1F1F1" style="stroke:#F1F1F1;stroke-width:1;"/><rect fill="none" height="101.1683" rx="12.5" ry="12.5" style="stroke:#181818;stroke-width:0.5;" width="395.4426" x="19" y="170.2488"/><line style="stroke:#181818;stroke-width:0.5;" x1="19" x2="414.4426" y1="196.737" y2="196.737"/><text fill="#000000" font-family="sans-serif" font-size="14" lengthAdjust="spacing" textLength="60.9014" x="186.2706" y="188.7839">Generate</text><rect fill="#F1F1F1" height="40" rx="12.5" ry="12.5" style="stroke:#181818;stroke-width:0.5;" width="50" x="68" y="214.047"/><text fill="#000000" font-family="sans-serif" font-size="14" lengthAdjust="spacing" textLength="24.6914" x="80.6543" y="239.338">Idle</text><ellipse cx="40" cy="234.047" fill="#222222" rx="10" ry="10" style="stroke:#222222;stroke-width:1;"/><g id="ParrotISU.CONC2.Generate.Speaking"><rect fill="#F1F1F1" height="50.6211" rx="12.5" ry="12.5" style="stroke:#181818;stroke-width:0.5;" width="156.8926" x="248.55" y="208.737"/><line style="stroke:#181818;stroke-width:0.5;" x1="248.55" x2="405.4426" y1="235.2253" y2="235.2253"/><text fill="#000000" font-family="sans-serif" font-size="14" lengthAdjust="spacing" textLength="61.5303" x="296.2312" y="227.2722">Speaking</text><text fill="#000000" font-family="sans-serif" font-size="12" lengthAdjust="spacing" textLength="136.8926" x="253.55" y="251.8269">entry /speak:$event.val</text></g><!--link *start*Generate to Idle2--><g class="link" data-entity-1="*start*Generate" data-entity-2="Idle2" data-source-line="15" data-uid="lnk10" id="link_*start*Generate_Idle2"><path d="M50.35,234.047 C56.13,234.047 55.9,234.047 61.68,234.047" fill="none" id="*start*Generate-to-Idle2" style="stroke:#181818;stroke-width:1;"/><polygon fill="#181818" points="67.68,234.047,58.68,230.047,62.68,234.047,58.68,238.047,67.68,234.047" style="stroke:#181818;stroke-width:1;"/></g><!--link Idle2 to Speaking--><g class="link" data-entity-1="Idle2" data-entity-2="Speaking" data-source-line="16" data-uid="lnk12" id="link_Idle2_Speaking"><path d="M118.27,246.047 C126.39,249.317 135.54,252.407 144.28,254.047 C178.15,260.417 210.033,258.79 242.433,253.69" fill="none" id="Idle2-to-Speaking" style="stroke:#181818;stroke-width:1;"/><polygon fill="#181818" points="248.36,252.757,238.8475,250.2051,243.4208,253.5345,240.0914,258.1078,248.36,252.757" style="stroke:#181818;stroke-width:1;"/><text fill="#000000" font-family="sans-serif" font-size="13" lengthAdjust="spacing" textLength="76.3496" x="145.28" y="250.6154">NEXT_MOVE</text></g><!--link Speaking to Idle2--><g class="link" data-entity-1="Speaking" data-entity-2="Idle2" data-source-line="18" data-uid="lnk13" id="link_Speaking_Idle2"><path d="M248.09,234.047 C202.98,234.047 155.4,234.047 124.49,234.047" fill="none" id="Speaking-to-Idle2" style="stroke:#181818;stroke-width:1;"/><polygon fill="#181818" points="118.49,234.047,127.49,238.047,123.49,234.047,127.49,230.047,118.49,234.047" style="stroke:#181818;stroke-width:1;"/><text fill="#000000" font-family="sans-serif" font-size="13" lengthAdjust="spacing" textLength="111.9092" x="127.78" y="227.6154">SPEAK_COMPLETE</text></g><line style="stroke:#181818;stroke-width:1.5;stroke-dasharray:8.0,10.0;" x1="12" x2="725.1585" y1="276.417" y2="276.417"/><path d="M31.5,283.417 L544.7444,283.417 A12.5,12.5 0 0 1 557.2444,295.917 L557.2444,329.0381 L19,329.0381 L19,295.917 A12.5,12.5 0 0 1 31.5,283.417" fill="#F1F1F1" style="stroke:#F1F1F1;stroke-width:1;"/><rect fill="none" height="122.2611" rx="12.5" ry="12.5" style="stroke:#181818;stroke-width:0.5;" width="538.2444" x="19" y="283.417"/><line style="stroke:#181818;stroke-width:0.5;" x1="19" x2="557.2444" y1="329.0381" y2="329.0381"/><line style="stroke:#181818;stroke-width:0.5;" x1="19" x2="557.2444" y1="309.9053" y2="309.9053"/><text fill="#000000" font-family="sans-serif" font-size="14" lengthAdjust="spacing" textLength="51.3105" x="262.4669" y="301.9522">Process</text><text fill="#000000" font-family="sans-serif" font-size="12" lengthAdjust="spacing" textLength="172.4355" x="24" y="321.5069">entry /assign $is.lm := "ping"</text><ellipse cx="40" cy="366.3481" fill="#222222" rx="10" ry="10" style="stroke:#222222;stroke-width:1;"/><rect fill="#F1F1F1" height="40" rx="12.5" ry="12.5" style="stroke:#181818;stroke-width:0.5;" width="50" x="68" y="346.3481"/><text fill="#000000" font-family="sans-serif" font-size="14" lengthAdjust="spacing" textLength="39.5938" x="73.2031" y="371.6391">Select</text><g id="ParrotISU.CONC3.Process.Update"><rect fill="#F1F1F1" height="50.6211" rx="12.5" ry="12.5" style="stroke:#181818;stroke-width:0.5;" width="166.4844" x="376.76" y="341.0381"/><line style="stroke:#181818;stroke-width:0.5;" x1="376.76" x2="543.2444" y1="367.5264" y2="367.5264"/><text fill="#000000" font-family="sans-serif" font-size="14" lengthAdjust="spacing" textLength="48.0908" x="435.9568" y="359.5733">Update</text><text fill="#000000" font-family="sans-serif" font-size="12" lengthAdjust="spacing" textLength="146.4844" x="381.76" y="384.128">entry /assign $is.lm := ""</text></g><!--link *start*Process to Select--><g class="link" data-entity-1="*start*Process" data-entity-2="Select" data-source-line="22" data-uid="lnk16" id="link_*start*Process_Select"><path d="M50.35,366.3481 C56.13,366.3481 55.9,366.3481 61.68,366.3481" fill="none" id="*start*Process-to-Select" style="stroke:#181818;stroke-width:1;"/><polygon fill="#181818" points="67.68,366.3481,58.68,362.3481,62.68,366.3481,58.68,370.3481,67.68,366.3481" style="stroke:#181818;stroke-width:1;"/></g><!--link Select to Update--><g class="link" data-entity-1="Select" data-entity-2="Update" data-source-line="23" data-uid="lnk18" id="link_Select_Update"><path d="M118.23,366.3481 C170.61,366.3481 287.24,366.3481 370.44,366.3481" fill="none" id="Select-to-Update" style="stroke:#181818;stroke-width:1;"/><polygon fill="#181818" points="376.44,366.3481,367.44,362.3481,371.44,366.3481,367.44,370.3481,376.44,366.3481" style="stroke:#181818;stroke-width:1;"/><text fill="#000000" font-family="sans-serif" font-size="13" lengthAdjust="spacing" textLength="239.5859" x="127.88" y="359.9165">($is.lm != "")/raise NEXT_MOVE:$is.lm</text></g><!--link Update to Select--><g class="link" data-entity-1="Update" data-entity-2="Select" data-source-line="25" data-uid="lnk19" id="link_Update_Select"><path d="M376.34,383.1581 C367.44,384.4581 358.49,385.5681 349.88,386.3481 C304.51,390.4381 189.67,394.6781 144.88,386.3481 C135.96,384.6881 132.1636,383.7695 123.8836,380.4695" fill="none" id="Update-to-Select" style="stroke:#181818;stroke-width:1;"/><polygon fill="#181818" points="118.31,378.2481,125.1895,385.296,122.9547,380.0993,128.1514,377.8644,118.31,378.2481" style="stroke:#181818;stroke-width:1;"/><text fill="#000000" font-family="sans-serif" font-size="13" lengthAdjust="spacing" textLength="203.6519" x="145.88" y="382.9165">SAYS:$val /assign $is.lm := $val</text></g><!--SRC=[VL7VQy8m47xlNt7hVDW6wl0nu41SaJ9_5AjZmubaxL73ObgIACZmVr_QngfLzX2uV7VVtNVVhLcCW9jCxo565KcMQPOAnr6QQeI0IfbgFvm3LU2MFp1Vzof_prcorjzyY_3h09HfNsYKcKHTO02BfoKqNy2FEHR_FCY1AKPf8fXY8Y4G1bxlRTMVZ8AXD_EAkhFyaKzWw8SpRrmLVecsf4mXGDZx34c3KwMdgBPSNxUeZvnw_SbWx8VUg-b2bMA9WBC6GBg0EnIwjQDcmSNpihNLPZCg8gmt9s3gv1xQd2cDmgGFvZMRbIS358QfqLfYZJ8RTGgFyyYjczMftEhaK9WX_IbcZRsFsMeqUIzjEk5MWye1qgYqNrHLpMzONjCSo3H2fIwl62B7g3It37DmdiM6GE2XmLIBR-2k2wxxQ2zJgILbjk0U6LRoqVsIJdBwMTbfBh5dDblT81MmtSEA_sT2PjnmdSCV]--></g></svg>